<svg width="24" height="24" fill="none" xmlns="http://www.w3.org/2000/svg"><path d="M19.622 7.243c-.573.253-1.18.42-1.802.494A3.147 3.147 0 0 0 19.2 6a6.268 6.268 0 0 1-1.992.761 3.136 3.136 0 0 0-5.344 2.86 8.906 8.906 0 0 1-6.466-3.277 3.136 3.136 0 0 0 .97 4.188 3.126 3.126 0 0 1-1.42-.392v.04a3.139 3.139 0 0 0 2.517 3.075 3.16 3.16 0 0 1-1.418.054 3.139 3.139 0 0 0 2.93 2.179 6.296 6.296 0 0 1-4.643 1.299 8.872 8.872 0 0 0 4.808 1.41c5.77 0 8.925-4.78 8.925-8.925 0-.135-.004-.272-.01-.405a6.372 6.372 0 0 0 1.565-1.624Z" fill="#BDB8AD"/></svg>